<svg width="311" height="339" viewBox="0 0 311 339" fill="none" xmlns="http://www.w3.org/2000/svg">
<path d="M37.5 247V211C37.5 209.895 38.3954 209 39.5 209H45L58.5 233H69V214H81V195H69V174.5H81V160H235V175H247.5V196.5H235V213H249L248.5 232L266 213H280.5C281.605 213 282.5 213.895 282.5 215V251C282.5 252.105 281.605 253 280.5 253H257.5L271 268.5V303L197.5 338H110L43.5 303V265L56 255V249H39.5C38.3954 249 37.5 248.105 37.5 247Z" fill="#FFD90F" stroke="black"/>
<path d="M88.5 208V181.5L107 167H136L147.5 181.5V200.5H138L121.5 216.5V219.5H100.5L88.5 208Z" fill="white" stroke="black"/>
<path d="M227.5 208V181.5L209 167H180L168.5 181.5V200.5H176L193 216.5V219.5H215.5L227.5 208Z" fill="white" stroke="black"/>
<path d="M69.5 195V174.5H81V161.5H60L45.5 175L44.5 209.5L58 233H69L69.5 214H81V195H69.5Z" fill="#2A92E0" stroke="black"/>
<path d="M245 195V175H234.5V161.5H254.5L273.5 176V212.5L254.5 233H247.5V213H234.5V195H245Z" fill="#2A92E0" stroke="black"/>
<path d="M43.7942 157.957L59.5 145H53.5V124.5L103 84.5H215.5L264.5 129V145H253L270.573 157.887C272.132 159.03 271.324 161.5 269.391 161.5H45.067C43.1915 161.5 42.3475 159.151 43.7942 157.957Z" fill="#040404" stroke="black"/>
<path d="M110.5 49.5L59.5 41L2 116.5L26 144H54V124.5L104.5 84H216L264 128.5V144H287L309 116.5L256 45L205.5 49.5L158 2L110.5 49.5Z" fill="#1B617F" stroke="black" stroke-width="2"/>
<rect x="190.5" y="188.5" width="13" height="11" rx="2" fill="#040404"/>
<rect x="113.5" y="188.5" width="13" height="11" rx="2" fill="#040404"/>
<rect x="134" y="220" width="11" height="10" rx="1.5" stroke="black"/>
<rect x="169" y="220" width="11" height="10" rx="1.5" stroke="black"/>
<path d="M133 97V57.5L144.5 64L160 49.5L173 64L186 59.5L184 97L160 119.5L133 97Z" fill="#EDE2B9" stroke="black" stroke-width="2"/>
<rect x="149.5" y="77.5" width="18" height="18" rx="1" stroke="black" stroke-width="2"/>
<path d="M121.5 227.5V216.5L138 200.5H176L193 216.5V227.5" stroke="black"/>
<path d="M83.5 289.5L115.5 283.5H200.5L227 289.5" stroke="black"/>
</svg>
